<svg xmlns="http://www.w3.org/2000/svg" width="900" height="520" viewBox="0 0 900 520">
<rect width="100%" height="100%" fill="#ffffff"/>
<text x="450" y="34" text-anchor="middle" font-size="22" font-family="Arial" font-weight="700">First Correct Evidence Rank</text>
<line x1="72" y1="448" x2="828" y2="448" stroke="#111827"/>
<line x1="72" y1="72" x2="72" y2="448" stroke="#111827"/>
<line x1="72" y1="448.0" x2="828" y2="448.0" stroke="#e5e7eb"/>
<text x="60" y="452.0" text-anchor="end" font-size="12" font-family="Arial">0</text>
<line x1="72" y1="372.8" x2="828" y2="372.8" stroke="#e5e7eb"/>
<text x="60" y="376.8" text-anchor="end" font-size="12" font-family="Arial">122</text>
<line x1="72" y1="297.6" x2="828" y2="297.6" stroke="#e5e7eb"/>
<text x="60" y="301.6" text-anchor="end" font-size="12" font-family="Arial">244</text>
<line x1="72" y1="222.4" x2="828" y2="222.4" stroke="#e5e7eb"/>
<text x="60" y="226.4" text-anchor="end" font-size="12" font-family="Arial">366</text>
<line x1="72" y1="147.2" x2="828" y2="147.2" stroke="#e5e7eb"/>
<text x="60" y="151.2" text-anchor="end" font-size="12" font-family="Arial">488</text>
<line x1="72" y1="72.0" x2="828" y2="72.0" stroke="#e5e7eb"/>
<text x="60" y="76.0" text-anchor="end" font-size="12" font-family="Arial">610</text>
<text x="166.5" y="476" text-anchor="middle" font-size="13" font-family="Arial">rank 1</text>
<rect x="106.0" y="303.8" width="27.5" height="144.2" fill="#2563eb"/>
<rect x="137.5" y="252.0" width="27.5" height="196.0" fill="#16a34a"/>
<rect x="169.0" y="72.0" width="27.5" height="376.0" fill="#d97706"/>
<text x="355.5" y="476" text-anchor="middle" font-size="13" font-family="Arial">rank 2-3</text>
<rect x="295.0" y="412.2" width="27.5" height="35.8" fill="#2563eb"/>
<rect x="326.5" y="244.6" width="27.5" height="203.4" fill="#16a34a"/>
<rect x="358.0" y="321.6" width="27.5" height="126.4" fill="#d97706"/>
<text x="544.5" y="476" text-anchor="middle" font-size="13" font-family="Arial">rank 4-5</text>
<rect x="484.0" y="440.0" width="27.5" height="8.0" fill="#2563eb"/>
<rect x="515.5" y="433.8" width="27.5" height="14.2" fill="#16a34a"/>
<rect x="547.0" y="422.7" width="27.5" height="25.3" fill="#d97706"/>
<text x="733.5" y="476" text-anchor="middle" font-size="13" font-family="Arial">rank 6-10</text>
<rect x="673.0" y="437.5" width="27.5" height="10.5" fill="#2563eb"/>
<rect x="704.5" y="439.4" width="27.5" height="8.6" fill="#16a34a"/>
<rect x="736.0" y="441.2" width="27.5" height="6.8" fill="#d97706"/>
<rect x="680" y="74" width="14" height="14" fill="#2563eb"/>
<text x="702" y="86" font-size="13" font-family="Arial">text_only</text>
<rect x="680" y="98" width="14" height="14" fill="#16a34a"/>
<text x="702" y="110" font-size="13" font-family="Arial">table_only</text>
<rect x="680" y="122" width="14" height="14" fill="#d97706"/>
<text x="702" y="134" font-size="13" font-family="Arial">combined</text>
<text x="450" y="502" text-anchor="middle" font-size="13" font-family="Arial">First gold evidence rank bucket</text>
<text x="18" y="260" transform="rotate(-90 18 260)" text-anchor="middle" font-size="13" font-family="Arial">Number of examples</text>
</svg>