<svg xmlns="http://www.w3.org/2000/svg" width="780" height="420" viewBox="0 0 780 420">
<rect width="100%" height="100%" fill="#ffffff"/>
<text x="390" y="34" text-anchor="middle" font-size="22" font-family="Arial" font-weight="700">Gold Evidence Coverage by Source</text>
<line x1="70" y1="350" x2="710" y2="350" stroke="#111827"/>
<line x1="70" y1="70" x2="70" y2="350" stroke="#111827"/>
<line x1="70" y1="350.0" x2="710" y2="350.0" stroke="#e5e7eb"/>
<text x="58" y="354.0" text-anchor="end" font-size="12" font-family="Arial">0.0</text>
<line x1="70" y1="294.0" x2="710" y2="294.0" stroke="#e5e7eb"/>
<text x="58" y="298.0" text-anchor="end" font-size="12" font-family="Arial">0.2</text>
<line x1="70" y1="238.0" x2="710" y2="238.0" stroke="#e5e7eb"/>
<text x="58" y="242.0" text-anchor="end" font-size="12" font-family="Arial">0.4</text>
<line x1="70" y1="182.0" x2="710" y2="182.0" stroke="#e5e7eb"/>
<text x="58" y="186.0" text-anchor="end" font-size="12" font-family="Arial">0.6</text>
<line x1="70" y1="126.0" x2="710" y2="126.0" stroke="#e5e7eb"/>
<text x="58" y="130.0" text-anchor="end" font-size="12" font-family="Arial">0.8</text>
<line x1="70" y1="70.0" x2="710" y2="70.0" stroke="#e5e7eb"/>
<text x="58" y="74.0" text-anchor="end" font-size="12" font-family="Arial">1.0</text>
<rect x="150.0" y="241.9" width="128.0" height="108.1" fill="#2563eb"/>
<text x="214.0" y="231.9" text-anchor="middle" font-size="13" font-family="Arial">38.6%</text>
<text x="214.0" y="378" text-anchor="middle" font-size="13" font-family="Arial">text</text>
<rect x="348.0" y="132.8" width="128.0" height="217.2" fill="#16a34a"/>
<text x="412.0" y="122.8" text-anchor="middle" font-size="13" font-family="Arial">77.6%</text>
<text x="412.0" y="378" text-anchor="middle" font-size="13" font-family="Arial">table</text>
<rect x="546.0" y="74.8" width="128.0" height="275.2" fill="#d97706"/>
<text x="610.0" y="64.8" text-anchor="middle" font-size="13" font-family="Arial">98.3%</text>
<text x="610.0" y="378" text-anchor="middle" font-size="13" font-family="Arial">combined</text>
<text x="390" y="400" text-anchor="middle" font-size="13" font-family="Arial">Evidence source</text>
<text x="18" y="210" transform="rotate(-90 18 210)" text-anchor="middle" font-size="13" font-family="Arial">Share of dev examples with gold evidence</text>
</svg>