<svg xmlns="http://www.w3.org/2000/svg" width="980" height="560" viewBox="0 0 980 560">
<rect width="100%" height="100%" fill="#ffffff"/>
<text x="490.0" y="34" text-anchor="middle" font-size="22" font-family="Arial" font-weight="700">Numerical Accuracy by Operation</text>
<line x1="78" y1="482" x2="902" y2="482" stroke="#111827"/>
<line x1="78" y1="78" x2="78" y2="482" stroke="#111827"/>
<line x1="78" y1="482.0" x2="902" y2="482.0" stroke="#e5e7eb"/>
<text x="66" y="486.0" text-anchor="end" font-size="12" font-family="Arial">0.0</text>
<line x1="78" y1="401.2" x2="902" y2="401.2" stroke="#e5e7eb"/>
<text x="66" y="405.2" text-anchor="end" font-size="12" font-family="Arial">0.2</text>
<line x1="78" y1="320.4" x2="902" y2="320.4" stroke="#e5e7eb"/>
<text x="66" y="324.4" text-anchor="end" font-size="12" font-family="Arial">0.4</text>
<line x1="78" y1="239.6" x2="902" y2="239.6" stroke="#e5e7eb"/>
<text x="66" y="243.6" text-anchor="end" font-size="12" font-family="Arial">0.6</text>
<line x1="78" y1="158.8" x2="902" y2="158.8" stroke="#e5e7eb"/>
<text x="66" y="162.8" text-anchor="end" font-size="12" font-family="Arial">0.8</text>
<line x1="78" y1="78.0" x2="902" y2="78.0" stroke="#e5e7eb"/>
<text x="66" y="82.0" text-anchor="end" font-size="12" font-family="Arial">1.0</text>
<rect x="97.8" y="78.0" width="43.5" height="404.0" fill="#2563eb"/>
<text x="119.5" y="72.0" text-anchor="middle" font-size="10" font-family="Arial">100%</text>
<rect x="146.2" y="78.0" width="43.5" height="404.0" fill="#16a34a"/>
<text x="168.0" y="72.0" text-anchor="middle" font-size="10" font-family="Arial">100%</text>
<text x="160.4" y="510" text-anchor="middle" font-size="12" font-family="Arial">add</text>
<rect x="262.6" y="78.0" width="43.5" height="404.0" fill="#2563eb"/>
<text x="284.3" y="72.0" text-anchor="middle" font-size="10" font-family="Arial">100%</text>
<rect x="311.0" y="78.0" width="43.5" height="404.0" fill="#16a34a"/>
<text x="332.8" y="72.0" text-anchor="middle" font-size="10" font-family="Arial">100%</text>
<text x="325.2" y="510" text-anchor="middle" font-size="12" font-family="Arial">divide</text>
<rect x="427.4" y="78.0" width="43.5" height="404.0" fill="#2563eb"/>
<text x="449.1" y="72.0" text-anchor="middle" font-size="10" font-family="Arial">100%</text>
<rect x="475.8" y="78.0" width="43.5" height="404.0" fill="#16a34a"/>
<text x="497.6" y="72.0" text-anchor="middle" font-size="10" font-family="Arial">100%</text>
<text x="490.0" y="510" text-anchor="middle" font-size="12" font-family="Arial">greater</text>
<rect x="592.2" y="78.0" width="43.5" height="404.0" fill="#2563eb"/>
<text x="613.9" y="72.0" text-anchor="middle" font-size="10" font-family="Arial">100%</text>
<rect x="640.6" y="78.0" width="43.5" height="404.0" fill="#16a34a"/>
<text x="662.4" y="72.0" text-anchor="middle" font-size="10" font-family="Arial">100%</text>
<text x="654.8" y="510" text-anchor="middle" font-size="12" font-family="Arial">multiply</text>
<rect x="757.0" y="78.0" width="43.5" height="404.0" fill="#2563eb"/>
<text x="778.7" y="72.0" text-anchor="middle" font-size="10" font-family="Arial">100%</text>
<rect x="805.4" y="78.0" width="43.5" height="404.0" fill="#16a34a"/>
<text x="827.2" y="72.0" text-anchor="middle" font-size="10" font-family="Arial">100%</text>
<text x="819.6" y="510" text-anchor="middle" font-size="12" font-family="Arial">subtract</text>
<rect x="652" y="66" width="14" height="14" fill="#2563eb"/>
<text x="674" y="78" font-size="13" font-family="Arial">answer accuracy</text>
<rect x="652" y="90" width="14" height="14" fill="#16a34a"/>
<text x="674" y="102" font-size="13" font-family="Arial">program exact match rate</text>
<text x="24" y="280" transform="rotate(-90 24 280)" text-anchor="middle" font-size="13" font-family="Arial">Rate</text>
</svg>