<svg xmlns="http://www.w3.org/2000/svg" width="980" height="560" viewBox="0 0 980 560">
<rect width="100%" height="100%" fill="#ffffff"/>
<text x="490.0" y="34" text-anchor="middle" font-size="22" font-family="Arial" font-weight="700">Numerical Accuracy by Operation</text>
<line x1="78" y1="482" x2="902" y2="482" stroke="#111827"/>
<line x1="78" y1="78" x2="78" y2="482" stroke="#111827"/>
<line x1="78" y1="482.0" x2="902" y2="482.0" stroke="#e5e7eb"/>
<text x="66" y="486.0" text-anchor="end" font-size="12" font-family="Arial">0.0</text>
<line x1="78" y1="401.2" x2="902" y2="401.2" stroke="#e5e7eb"/>
<text x="66" y="405.2" text-anchor="end" font-size="12" font-family="Arial">0.2</text>
<line x1="78" y1="320.4" x2="902" y2="320.4" stroke="#e5e7eb"/>
<text x="66" y="324.4" text-anchor="end" font-size="12" font-family="Arial">0.4</text>
<line x1="78" y1="239.6" x2="902" y2="239.6" stroke="#e5e7eb"/>
<text x="66" y="243.6" text-anchor="end" font-size="12" font-family="Arial">0.6</text>
<line x1="78" y1="158.8" x2="902" y2="158.8" stroke="#e5e7eb"/>
<text x="66" y="162.8" text-anchor="end" font-size="12" font-family="Arial">0.8</text>
<line x1="78" y1="78.0" x2="902" y2="78.0" stroke="#e5e7eb"/>
<text x="66" y="82.0" text-anchor="end" font-size="12" font-family="Arial">1.0</text>
<rect x="94.5" y="93.6" width="35.4" height="388.4" fill="#2563eb"/>
<text x="112.2" y="87.6" text-anchor="middle" font-size="10" font-family="Arial">96%</text>
<rect x="134.9" y="78.0" width="35.4" height="404.0" fill="#16a34a"/>
<text x="152.6" y="72.0" text-anchor="middle" font-size="10" font-family="Arial">100%</text>
<text x="146.7" y="510" text-anchor="middle" font-size="12" font-family="Arial">add</text>
<rect x="231.8" y="78.0" width="35.4" height="404.0" fill="#2563eb"/>
<text x="249.5" y="72.0" text-anchor="middle" font-size="10" font-family="Arial">100%</text>
<rect x="272.2" y="78.0" width="35.4" height="404.0" fill="#16a34a"/>
<text x="289.9" y="72.0" text-anchor="middle" font-size="10" font-family="Arial">100%</text>
<text x="284.0" y="510" text-anchor="middle" font-size="12" font-family="Arial">divide</text>
<rect x="369.1" y="78.0" width="35.4" height="404.0" fill="#2563eb"/>
<text x="386.8" y="72.0" text-anchor="middle" font-size="10" font-family="Arial">100%</text>
<rect x="409.5" y="78.0" width="35.4" height="404.0" fill="#16a34a"/>
<text x="427.2" y="72.0" text-anchor="middle" font-size="10" font-family="Arial">100%</text>
<text x="421.3" y="510" text-anchor="middle" font-size="12" font-family="Arial">greater</text>
<rect x="506.5" y="78.0" width="35.4" height="404.0" fill="#2563eb"/>
<text x="524.2" y="72.0" text-anchor="middle" font-size="10" font-family="Arial">100%</text>
<rect x="546.9" y="78.0" width="35.4" height="404.0" fill="#16a34a"/>
<text x="564.6" y="72.0" text-anchor="middle" font-size="10" font-family="Arial">100%</text>
<text x="558.7" y="510" text-anchor="middle" font-size="12" font-family="Arial">multiply</text>
<rect x="643.8" y="79.1" width="35.4" height="402.9" fill="#2563eb"/>
<text x="661.5" y="73.1" text-anchor="middle" font-size="10" font-family="Arial">100%</text>
<rect x="684.2" y="79.1" width="35.4" height="402.9" fill="#16a34a"/>
<text x="701.9" y="73.1" text-anchor="middle" font-size="10" font-family="Arial">100%</text>
<text x="696.0" y="510" text-anchor="middle" font-size="12" font-family="Arial">subtract</text>
<rect x="781.1" y="482.0" width="35.4" height="0.0" fill="#2563eb"/>
<text x="798.8" y="476.0" text-anchor="middle" font-size="10" font-family="Arial">0%</text>
<rect x="821.5" y="78.0" width="35.4" height="404.0" fill="#16a34a"/>
<text x="839.2" y="72.0" text-anchor="middle" font-size="10" font-family="Arial">100%</text>
<text x="833.3" y="510" text-anchor="middle" font-size="12" font-family="Arial">unknown</text>
<rect x="652" y="66" width="14" height="14" fill="#2563eb"/>
<text x="674" y="78" font-size="13" font-family="Arial">answer accuracy</text>
<rect x="652" y="90" width="14" height="14" fill="#16a34a"/>
<text x="674" y="102" font-size="13" font-family="Arial">program exact match rate</text>
<text x="24" y="280" transform="rotate(-90 24 280)" text-anchor="middle" font-size="13" font-family="Arial">Rate</text>
</svg>