<svg xmlns="http://www.w3.org/2000/svg" width="980" height="560" viewBox="0 0 980 560">
<rect width="100%" height="100%" fill="#ffffff"/>
<text x="490.0" y="34" text-anchor="middle" font-size="22" font-family="Arial" font-weight="700">Numerical Accuracy by Question Type</text>
<line x1="78" y1="482" x2="902" y2="482" stroke="#111827"/>
<line x1="78" y1="78" x2="78" y2="482" stroke="#111827"/>
<line x1="78" y1="482.0" x2="902" y2="482.0" stroke="#e5e7eb"/>
<text x="66" y="486.0" text-anchor="end" font-size="12" font-family="Arial">0.0</text>
<line x1="78" y1="401.2" x2="902" y2="401.2" stroke="#e5e7eb"/>
<text x="66" y="405.2" text-anchor="end" font-size="12" font-family="Arial">0.2</text>
<line x1="78" y1="320.4" x2="902" y2="320.4" stroke="#e5e7eb"/>
<text x="66" y="324.4" text-anchor="end" font-size="12" font-family="Arial">0.4</text>
<line x1="78" y1="239.6" x2="902" y2="239.6" stroke="#e5e7eb"/>
<text x="66" y="243.6" text-anchor="end" font-size="12" font-family="Arial">0.6</text>
<line x1="78" y1="158.8" x2="902" y2="158.8" stroke="#e5e7eb"/>
<text x="66" y="162.8" text-anchor="end" font-size="12" font-family="Arial">0.8</text>
<line x1="78" y1="78.0" x2="902" y2="78.0" stroke="#e5e7eb"/>
<text x="66" y="82.0" text-anchor="end" font-size="12" font-family="Arial">1.0</text>
<rect x="102.7" y="78.0" width="55.6" height="404.0" fill="#2563eb"/>
<text x="130.5" y="72.0" text-anchor="middle" font-size="10" font-family="Arial">100%</text>
<rect x="163.3" y="78.0" width="55.6" height="404.0" fill="#16a34a"/>
<text x="191.1" y="72.0" text-anchor="middle" font-size="10" font-family="Arial">100%</text>
<text x="181.0" y="510" text-anchor="middle" font-size="12" font-family="Arial">aggregation</text>
<rect x="308.7" y="78.0" width="55.6" height="404.0" fill="#2563eb"/>
<text x="336.5" y="72.0" text-anchor="middle" font-size="10" font-family="Arial">100%</text>
<rect x="369.3" y="78.0" width="55.6" height="404.0" fill="#16a34a"/>
<text x="397.1" y="72.0" text-anchor="middle" font-size="10" font-family="Arial">100%</text>
<text x="387.0" y="510" text-anchor="middle" font-size="12" font-family="Arial">difference/change</text>
<rect x="514.7" y="78.0" width="55.6" height="404.0" fill="#2563eb"/>
<text x="542.5" y="72.0" text-anchor="middle" font-size="10" font-family="Arial">100%</text>
<rect x="575.3" y="78.0" width="55.6" height="404.0" fill="#16a34a"/>
<text x="603.1" y="72.0" text-anchor="middle" font-size="10" font-family="Arial">100%</text>
<text x="593.0" y="510" text-anchor="middle" font-size="12" font-family="Arial">division/percentage</text>
<rect x="720.7" y="78.0" width="55.6" height="404.0" fill="#2563eb"/>
<text x="748.5" y="72.0" text-anchor="middle" font-size="10" font-family="Arial">100%</text>
<rect x="781.3" y="78.0" width="55.6" height="404.0" fill="#16a34a"/>
<text x="809.1" y="72.0" text-anchor="middle" font-size="10" font-family="Arial">100%</text>
<text x="799.0" y="510" text-anchor="middle" font-size="12" font-family="Arial">other</text>
<rect x="652" y="66" width="14" height="14" fill="#2563eb"/>
<text x="674" y="78" font-size="13" font-family="Arial">answer accuracy</text>
<rect x="652" y="90" width="14" height="14" fill="#16a34a"/>
<text x="674" y="102" font-size="13" font-family="Arial">program exact match rate</text>
<text x="24" y="280" transform="rotate(-90 24 280)" text-anchor="middle" font-size="13" font-family="Arial">Rate</text>
</svg>