<svg xmlns="http://www.w3.org/2000/svg" width="920" height="520" viewBox="0 0 920 520">
<rect width="100%" height="100%" fill="#ffffff"/>
<text x="460.0" y="34" text-anchor="middle" font-size="22" font-family="Arial" font-weight="700">Arithmetic Program Operation Mix</text>
<line x1="76" y1="444" x2="844" y2="444" stroke="#111827"/>
<line x1="76" y1="76" x2="76" y2="444" stroke="#111827"/>
<line x1="76" y1="444.0" x2="844" y2="444.0" stroke="#e5e7eb"/>
<text x="64" y="448.0" text-anchor="end" font-size="12" font-family="Arial">0</text>
<line x1="76" y1="370.4" x2="844" y2="370.4" stroke="#e5e7eb"/>
<text x="64" y="374.4" text-anchor="end" font-size="12" font-family="Arial">13</text>
<line x1="76" y1="296.8" x2="844" y2="296.8" stroke="#e5e7eb"/>
<text x="64" y="300.8" text-anchor="end" font-size="12" font-family="Arial">26</text>
<line x1="76" y1="223.2" x2="844" y2="223.2" stroke="#e5e7eb"/>
<text x="64" y="227.2" text-anchor="end" font-size="12" font-family="Arial">40</text>
<line x1="76" y1="149.6" x2="844" y2="149.6" stroke="#e5e7eb"/>
<text x="64" y="153.6" text-anchor="end" font-size="12" font-family="Arial">53</text>
<line x1="76" y1="76.0" x2="844" y2="76.0" stroke="#e5e7eb"/>
<text x="64" y="80.0" text-anchor="end" font-size="12" font-family="Arial">66</text>
<rect x="76.0" y="354.8" width="134.4" height="89.2" fill="#2563eb"/>
<text x="143.2" y="346.8" text-anchor="middle" font-size="12" font-family="Arial">16</text>
<text x="143.2" y="472" text-anchor="middle" font-size="12" font-family="Arial">add</text>
<rect x="234.4" y="159.6" width="134.4" height="284.4" fill="#16a34a"/>
<text x="301.6" y="151.6" text-anchor="middle" font-size="12" font-family="Arial">51</text>
<text x="301.6" y="472" text-anchor="middle" font-size="12" font-family="Arial">divide</text>
<rect x="392.8" y="438.4" width="134.4" height="5.6" fill="#d97706"/>
<text x="460.0" y="430.4" text-anchor="middle" font-size="12" font-family="Arial">1</text>
<text x="460.0" y="472" text-anchor="middle" font-size="12" font-family="Arial">greater</text>
<rect x="551.2" y="393.8" width="134.4" height="50.2" fill="#7c3aed"/>
<text x="618.4" y="385.8" text-anchor="middle" font-size="12" font-family="Arial">9</text>
<text x="618.4" y="472" text-anchor="middle" font-size="12" font-family="Arial">multiply</text>
<rect x="709.6" y="76.0" width="134.4" height="368.0" fill="#dc2626"/>
<text x="776.8" y="68.0" text-anchor="middle" font-size="12" font-family="Arial">66</text>
<text x="776.8" y="472" text-anchor="middle" font-size="12" font-family="Arial">subtract</text>
<text x="22" y="260.0" transform="rotate(-90 22 260.0)" text-anchor="middle" font-size="13" font-family="Arial">Examples</text>
</svg>