<svg xmlns="http://www.w3.org/2000/svg" width="920" height="520" viewBox="0 0 920 520">
<rect width="100%" height="100%" fill="#ffffff"/>
<text x="460.0" y="34" text-anchor="middle" font-size="22" font-family="Arial" font-weight="700">Arithmetic Program Operation Mix (N=883)</text>
<line x1="76" y1="444" x2="844" y2="444" stroke="#111827"/>
<line x1="76" y1="76" x2="76" y2="444" stroke="#111827"/>
<line x1="76" y1="444.0" x2="844" y2="444.0" stroke="#e5e7eb"/>
<text x="64" y="448.0" text-anchor="end" font-size="12" font-family="Arial">0</text>
<line x1="76" y1="370.4" x2="844" y2="370.4" stroke="#e5e7eb"/>
<text x="64" y="374.4" text-anchor="end" font-size="12" font-family="Arial">72</text>
<line x1="76" y1="296.8" x2="844" y2="296.8" stroke="#e5e7eb"/>
<text x="64" y="300.8" text-anchor="end" font-size="12" font-family="Arial">144</text>
<line x1="76" y1="223.2" x2="844" y2="223.2" stroke="#e5e7eb"/>
<text x="64" y="227.2" text-anchor="end" font-size="12" font-family="Arial">217</text>
<line x1="76" y1="149.6" x2="844" y2="149.6" stroke="#e5e7eb"/>
<text x="64" y="153.6" text-anchor="end" font-size="12" font-family="Arial">289</text>
<line x1="76" y1="76.0" x2="844" y2="76.0" stroke="#e5e7eb"/>
<text x="64" y="80.0" text-anchor="end" font-size="12" font-family="Arial">361</text>
<rect x="76.0" y="338.0" width="108.0" height="106.0" fill="#2563eb"/>
<text x="130.0" y="330.0" text-anchor="middle" font-size="12" font-family="Arial">104</text>
<text x="130.0" y="472" text-anchor="middle" font-size="12" font-family="Arial">add</text>
<rect x="208.0" y="114.7" width="108.0" height="329.3" fill="#16a34a"/>
<text x="262.0" y="106.7" text-anchor="middle" font-size="12" font-family="Arial">323</text>
<text x="262.0" y="472" text-anchor="middle" font-size="12" font-family="Arial">divide</text>
<rect x="340.0" y="434.8" width="108.0" height="9.2" fill="#d97706"/>
<text x="394.0" y="426.8" text-anchor="middle" font-size="12" font-family="Arial">9</text>
<text x="394.0" y="472" text-anchor="middle" font-size="12" font-family="Arial">greater</text>
<rect x="472.0" y="386.9" width="108.0" height="57.1" fill="#7c3aed"/>
<text x="526.0" y="378.9" text-anchor="middle" font-size="12" font-family="Arial">56</text>
<text x="526.0" y="472" text-anchor="middle" font-size="12" font-family="Arial">multiply</text>
<rect x="604.0" y="76.0" width="108.0" height="368.0" fill="#dc2626"/>
<text x="658.0" y="68.0" text-anchor="middle" font-size="12" font-family="Arial">361</text>
<text x="658.0" y="472" text-anchor="middle" font-size="12" font-family="Arial">subtract</text>
<rect x="736.0" y="413.4" width="108.0" height="30.6" fill="#0891b2"/>
<text x="790.0" y="405.4" text-anchor="middle" font-size="12" font-family="Arial">30</text>
<text x="790.0" y="472" text-anchor="middle" font-size="12" font-family="Arial">unknown</text>
<text x="22" y="260.0" transform="rotate(-90 22 260.0)" text-anchor="middle" font-size="13" font-family="Arial">Examples</text>
<text x="460.0" y="508" text-anchor="middle" font-size="13" font-family="Arial">Operation</text>
</svg>