<svg xmlns="http://www.w3.org/2000/svg" width="920" height="520" viewBox="0 0 920 520">
<rect width="100%" height="100%" fill="#ffffff"/>
<text x="460.0" y="34" text-anchor="middle" font-size="22" font-family="Arial" font-weight="700">Gold Evidence Coverage by Source</text>
<line x1="76" y1="444" x2="844" y2="444" stroke="#111827"/>
<line x1="76" y1="76" x2="76" y2="444" stroke="#111827"/>
<line x1="76" y1="444.0" x2="844" y2="444.0" stroke="#e5e7eb"/>
<text x="64" y="448.0" text-anchor="end" font-size="12" font-family="Arial">0%</text>
<line x1="76" y1="370.4" x2="844" y2="370.4" stroke="#e5e7eb"/>
<text x="64" y="374.4" text-anchor="end" font-size="12" font-family="Arial">20%</text>
<line x1="76" y1="296.8" x2="844" y2="296.8" stroke="#e5e7eb"/>
<text x="64" y="300.8" text-anchor="end" font-size="12" font-family="Arial">40%</text>
<line x1="76" y1="223.2" x2="844" y2="223.2" stroke="#e5e7eb"/>
<text x="64" y="227.2" text-anchor="end" font-size="12" font-family="Arial">60%</text>
<line x1="76" y1="149.6" x2="844" y2="149.6" stroke="#e5e7eb"/>
<text x="64" y="153.6" text-anchor="end" font-size="12" font-family="Arial">80%</text>
<line x1="76" y1="76.0" x2="844" y2="76.0" stroke="#e5e7eb"/>
<text x="64" y="80.0" text-anchor="end" font-size="12" font-family="Arial">100%</text>
<rect x="76.0" y="301.9" width="240.0" height="142.1" fill="#2563eb"/>
<text x="196.0" y="293.9" text-anchor="middle" font-size="12" font-family="Arial">38.6%</text>
<text x="196.0" y="472" text-anchor="middle" font-size="12" font-family="Arial">text</text>
<rect x="340.0" y="158.5" width="240.0" height="285.5" fill="#16a34a"/>
<text x="460.0" y="150.5" text-anchor="middle" font-size="12" font-family="Arial">77.6%</text>
<text x="460.0" y="472" text-anchor="middle" font-size="12" font-family="Arial">table</text>
<rect x="604.0" y="82.3" width="240.0" height="361.7" fill="#d97706"/>
<text x="724.0" y="74.3" text-anchor="middle" font-size="12" font-family="Arial">98.3%</text>
<text x="724.0" y="472" text-anchor="middle" font-size="12" font-family="Arial">combined</text>
<text x="22" y="260.0" transform="rotate(-90 22 260.0)" text-anchor="middle" font-size="13" font-family="Arial">Coverage</text>
</svg>