<svg xmlns="http://www.w3.org/2000/svg" width="920" height="520" viewBox="0 0 920 520">
<rect width="100%" height="100%" fill="#ffffff"/>
<text x="460.0" y="34" text-anchor="middle" font-size="22" font-family="Arial" font-weight="700">Question Type Mix in Arithmetic Subset (N=883)</text>
<line x1="76" y1="444" x2="844" y2="444" stroke="#111827"/>
<line x1="76" y1="76" x2="76" y2="444" stroke="#111827"/>
<line x1="76" y1="444.0" x2="844" y2="444.0" stroke="#e5e7eb"/>
<text x="64" y="448.0" text-anchor="end" font-size="12" font-family="Arial">0</text>
<line x1="76" y1="370.4" x2="844" y2="370.4" stroke="#e5e7eb"/>
<text x="64" y="374.4" text-anchor="end" font-size="12" font-family="Arial">104</text>
<line x1="76" y1="296.8" x2="844" y2="296.8" stroke="#e5e7eb"/>
<text x="64" y="300.8" text-anchor="end" font-size="12" font-family="Arial">208</text>
<line x1="76" y1="223.2" x2="844" y2="223.2" stroke="#e5e7eb"/>
<text x="64" y="227.2" text-anchor="end" font-size="12" font-family="Arial">313</text>
<line x1="76" y1="149.6" x2="844" y2="149.6" stroke="#e5e7eb"/>
<text x="64" y="153.6" text-anchor="end" font-size="12" font-family="Arial">417</text>
<line x1="76" y1="76.0" x2="844" y2="76.0" stroke="#e5e7eb"/>
<text x="64" y="80.0" text-anchor="end" font-size="12" font-family="Arial">521</text>
<rect x="76.0" y="344.4" width="174.0" height="99.6" fill="#2563eb"/>
<text x="163.0" y="336.4" text-anchor="middle" font-size="12" font-family="Arial">141</text>
<text x="163.0" y="472" text-anchor="middle" font-size="12" font-family="Arial">aggregation</text>
<rect x="274.0" y="319.0" width="174.0" height="125.0" fill="#16a34a"/>
<text x="361.0" y="311.0" text-anchor="middle" font-size="12" font-family="Arial">177</text>
<text x="361.0" y="472" text-anchor="middle" font-size="12" font-family="Arial">difference/change</text>
<rect x="472.0" y="76.0" width="174.0" height="368.0" fill="#d97706"/>
<text x="559.0" y="68.0" text-anchor="middle" font-size="12" font-family="Arial">521</text>
<text x="559.0" y="472" text-anchor="middle" font-size="12" font-family="Arial">division/percentage</text>
<rect x="670.0" y="412.9" width="174.0" height="31.1" fill="#7c3aed"/>
<text x="757.0" y="404.9" text-anchor="middle" font-size="12" font-family="Arial">44</text>
<text x="757.0" y="472" text-anchor="middle" font-size="12" font-family="Arial">other</text>
<text x="22" y="260.0" transform="rotate(-90 22 260.0)" text-anchor="middle" font-size="13" font-family="Arial">Examples</text>
<text x="460.0" y="508" text-anchor="middle" font-size="13" font-family="Arial">Question Type</text>
</svg>