<svg xmlns="http://www.w3.org/2000/svg" width="920" height="520" viewBox="0 0 920 520">
<rect width="100%" height="100%" fill="#ffffff"/>
<text x="460.0" y="34" text-anchor="middle" font-size="22" font-family="Arial" font-weight="700">Question Type Mix in Arithmetic Subset</text>
<line x1="76" y1="444" x2="844" y2="444" stroke="#111827"/>
<line x1="76" y1="76" x2="76" y2="444" stroke="#111827"/>
<line x1="76" y1="444.0" x2="844" y2="444.0" stroke="#e5e7eb"/>
<text x="64" y="448.0" text-anchor="end" font-size="12" font-family="Arial">0</text>
<line x1="76" y1="370.4" x2="844" y2="370.4" stroke="#e5e7eb"/>
<text x="64" y="374.4" text-anchor="end" font-size="12" font-family="Arial">17</text>
<line x1="76" y1="296.8" x2="844" y2="296.8" stroke="#e5e7eb"/>
<text x="64" y="300.8" text-anchor="end" font-size="12" font-family="Arial">34</text>
<line x1="76" y1="223.2" x2="844" y2="223.2" stroke="#e5e7eb"/>
<text x="64" y="227.2" text-anchor="end" font-size="12" font-family="Arial">52</text>
<line x1="76" y1="149.6" x2="844" y2="149.6" stroke="#e5e7eb"/>
<text x="64" y="153.6" text-anchor="end" font-size="12" font-family="Arial">69</text>
<line x1="76" y1="76.0" x2="844" y2="76.0" stroke="#e5e7eb"/>
<text x="64" y="80.0" text-anchor="end" font-size="12" font-family="Arial">86</text>
<rect x="76.0" y="345.6" width="174.0" height="98.4" fill="#2563eb"/>
<text x="163.0" y="337.6" text-anchor="middle" font-size="12" font-family="Arial">23</text>
<text x="163.0" y="472" text-anchor="middle" font-size="12" font-family="Arial">aggregation</text>
<rect x="274.0" y="307.1" width="174.0" height="136.9" fill="#16a34a"/>
<text x="361.0" y="299.1" text-anchor="middle" font-size="12" font-family="Arial">32</text>
<text x="361.0" y="472" text-anchor="middle" font-size="12" font-family="Arial">difference/change</text>
<rect x="472.0" y="76.0" width="174.0" height="368.0" fill="#d97706"/>
<text x="559.0" y="68.0" text-anchor="middle" font-size="12" font-family="Arial">86</text>
<text x="559.0" y="472" text-anchor="middle" font-size="12" font-family="Arial">division/percentage</text>
<rect x="670.0" y="435.4" width="174.0" height="8.6" fill="#7c3aed"/>
<text x="757.0" y="427.4" text-anchor="middle" font-size="12" font-family="Arial">2</text>
<text x="757.0" y="472" text-anchor="middle" font-size="12" font-family="Arial">other</text>
<text x="22" y="260.0" transform="rotate(-90 22 260.0)" text-anchor="middle" font-size="13" font-family="Arial">Examples</text>
</svg>