<svg xmlns="http://www.w3.org/2000/svg" width="980" height="560" viewBox="0 0 980 560">
<rect width="100%" height="100%" fill="#ffffff"/>
<text x="490.0" y="34" text-anchor="middle" font-size="22" font-family="Arial" font-weight="700">Retrieval Hit Rates by Evidence Source</text>
<line x1="80" y1="480" x2="900" y2="480" stroke="#111827"/>
<line x1="80" y1="80" x2="80" y2="480" stroke="#111827"/>
<line x1="80" y1="480.0" x2="900" y2="480.0" stroke="#e5e7eb"/>
<text x="68" y="484.0" text-anchor="end" font-size="12" font-family="Arial">0%</text>
<line x1="80" y1="400.0" x2="900" y2="400.0" stroke="#e5e7eb"/>
<text x="68" y="404.0" text-anchor="end" font-size="12" font-family="Arial">20%</text>
<line x1="80" y1="320.0" x2="900" y2="320.0" stroke="#e5e7eb"/>
<text x="68" y="324.0" text-anchor="end" font-size="12" font-family="Arial">40%</text>
<line x1="80" y1="240.0" x2="900" y2="240.0" stroke="#e5e7eb"/>
<text x="68" y="244.0" text-anchor="end" font-size="12" font-family="Arial">60%</text>
<line x1="80" y1="160.0" x2="900" y2="160.0" stroke="#e5e7eb"/>
<text x="68" y="164.0" text-anchor="end" font-size="12" font-family="Arial">80%</text>
<line x1="80" y1="80.0" x2="900" y2="80.0" stroke="#e5e7eb"/>
<text x="68" y="84.0" text-anchor="end" font-size="12" font-family="Arial">100%</text>
<rect x="112.8" y="205.5" width="39.6" height="274.5" fill="#2563eb"/>
<text x="132.6" y="199.5" text-anchor="middle" font-size="10" font-family="Arial">69%</text>
<rect x="157.4" y="294.3" width="39.6" height="185.7" fill="#d97706"/>
<text x="177.1" y="288.3" text-anchor="middle" font-size="10" font-family="Arial">46%</text>
<rect x="201.9" y="198.9" width="39.6" height="281.1" fill="#16a34a"/>
<text x="221.7" y="192.9" text-anchor="middle" font-size="10" font-family="Arial">70%</text>
<text x="182.5" y="508" text-anchor="middle" font-size="12" font-family="Arial">hit@1</text>
<rect x="317.8" y="137.5" width="39.6" height="342.5" fill="#2563eb"/>
<text x="337.6" y="131.5" text-anchor="middle" font-size="10" font-family="Arial">86%</text>
<rect x="362.4" y="101.6" width="39.6" height="378.4" fill="#d97706"/>
<text x="382.1" y="95.6" text-anchor="middle" font-size="10" font-family="Arial">95%</text>
<rect x="406.9" y="104.4" width="39.6" height="375.6" fill="#16a34a"/>
<text x="426.7" y="98.4" text-anchor="middle" font-size="10" font-family="Arial">94%</text>
<text x="387.5" y="508" text-anchor="middle" font-size="12" font-family="Arial">hit@3</text>
<rect x="522.8" y="122.2" width="39.6" height="357.8" fill="#2563eb"/>
<text x="542.6" y="116.2" text-anchor="middle" font-size="10" font-family="Arial">89%</text>
<rect x="567.4" y="88.2" width="39.6" height="391.8" fill="#d97706"/>
<text x="587.1" y="82.2" text-anchor="middle" font-size="10" font-family="Arial">98%</text>
<rect x="611.9" y="85.5" width="39.6" height="394.5" fill="#16a34a"/>
<text x="631.7" y="79.5" text-anchor="middle" font-size="10" font-family="Arial">99%</text>
<text x="592.5" y="508" text-anchor="middle" font-size="12" font-family="Arial">hit@5</text>
<rect x="727.8" y="102.3" width="39.6" height="377.7" fill="#2563eb"/>
<text x="747.6" y="96.3" text-anchor="middle" font-size="10" font-family="Arial">94%</text>
<rect x="772.4" y="80.0" width="39.6" height="400.0" fill="#d97706"/>
<text x="792.1" y="74.0" text-anchor="middle" font-size="10" font-family="Arial">100%</text>
<rect x="816.9" y="80.5" width="39.6" height="399.5" fill="#16a34a"/>
<text x="836.7" y="74.5" text-anchor="middle" font-size="10" font-family="Arial">100%</text>
<text x="797.5" y="508" text-anchor="middle" font-size="12" font-family="Arial">hit@10</text>
<rect x="670" y="64" width="14" height="14" fill="#2563eb"/>
<text x="692" y="76" font-size="13" font-family="Arial">text_only</text>
<rect x="670" y="88" width="14" height="14" fill="#d97706"/>
<text x="692" y="100" font-size="13" font-family="Arial">table_only</text>
<rect x="670" y="112" width="14" height="14" fill="#16a34a"/>
<text x="692" y="124" font-size="13" font-family="Arial">combined</text>
</svg>